<svg xmlns="http://www.w3.org/2000/svg" xmlns:xlink="http://www.w3.org/1999/xlink" width="1920" height="1080" viewBox="0 0 1920 1080" style="">
  <defs>
    <clipPath id="clip-Web_1920_1">
      <path width="1920" height="1080" d="M0 0 L1920 0 L1920 1080 L0 1080 Z" class="lyaLamxO_0"></path>
    </clipPath>
  </defs>
  <g id="Web_1920_1" data-name="Web 1920 – 1" clip-path="url(#clip-Web_1920_1)">
    <path width="1920" height="1080" fill="#186ab4" d="M0 0 L1920 0 L1920 1080 L0 1080 Z" class="lyaLamxO_1"></path>
    <path id="Path_1" data-name="Path 1" d="M-76.8,665.6s98.133-83.733,160-96,87.467,46.933,87.467,46.933,32.533,77.333,74.667,121.6S339.2,793.6,339.2,793.6s74.357,11.106,132.267-55.467,42.667-58.667,66.133-96,5.333-16.533,27.733-53.333,24.533-64,61.867-93.867,87.467-25.6,87.467-25.6,31.194,14.623,62.127,48.223S813.4,565.525,857.6,588.8s82.714-5.438,82.714-5.438,27.091-9,64.486-56.428,40-78.4,66.133-81.067,36.267,19.2,53.333,49.067,19.2,45.333,44.8,74.667,18.667,50.133,64,46.933,93.867-57.6,123.733-70.4,37.867-8,72.533,0,66.133,32,66.133,32,44.8,32,51.2,38.4,48.533,24.533,83.2,12.8,64-51.2,64-51.2l70.4-83.2s48-69.867,85.333-87.467,80-4.267,106.667,0,0,17.067,0,17.067" fill="none" stroke="#fff" stroke-width="3" class="lyaLamxO_2"></path>
    <g id="Ellipse_1" data-name="Ellipse 1" transform="translate(176 644)" fill="#fff" stroke="#707070" stroke-width="1">
      <path stroke="none" d="M0,14A14,14 0,1,1 28,14A14,14 0,1,1 0,14" class="lyaLamxO_3"></path>
      <path fill="none" d="M0.5,14A13.5,13.5 0,1,1 27.5,14A13.5,13.5 0,1,1 0.5,14" class="lyaLamxO_4"></path>
    </g>
    <g id="Ellipse_2" data-name="Ellipse 2" transform="translate(176 644)" fill="#19fb00" stroke="#707070" stroke-width="6">
      <path stroke="none" d="M0,14A14,14 0,1,1 28,14A14,14 0,1,1 0,14" class="lyaLamxO_5"></path>
      <path fill="none" d="M3,14A11,11 0,1,1 25,14A11,11 0,1,1 3,14" class="lyaLamxO_6"></path>
    </g>
    <g id="Ellipse_4" data-name="Ellipse 4" transform="translate(558 562)" fill="#19fb00" stroke="#707070" stroke-width="6">
      <path stroke="none" d="M0,14A14,14 0,1,1 28,14A14,14 0,1,1 0,14" class="lyaLamxO_7"></path>
      <path fill="none" d="M3,14A11,11 0,1,1 25,14A11,11 0,1,1 3,14" class="lyaLamxO_8"></path>
    </g>
    <g id="Ellipse_6" data-name="Ellipse 6" transform="translate(1021 472)" fill="#19fb00" stroke="#707070" stroke-width="6">
      <path stroke="none" d="M0,14A14,14 0,1,1 28,14A14,14 0,1,1 0,14" class="lyaLamxO_9"></path>
      <path fill="none" d="M3,14A11,11 0,1,1 25,14A11,11 0,1,1 3,14" class="lyaLamxO_10"></path>
    </g>
    <g id="Ellipse_8" data-name="Ellipse 8" transform="translate(1435 540)" fill="#19fb00" stroke="#707070" stroke-width="6">
      <path stroke="none" d="M0,14A14,14 0,1,1 28,14A14,14 0,1,1 0,14" class="lyaLamxO_11"></path>
      <path fill="none" d="M3,14A11,11 0,1,1 25,14A11,11 0,1,1 3,14" class="lyaLamxO_12"></path>
    </g>
    <g id="Ellipse_3" data-name="Ellipse 3" transform="translate(332 780)" fill="#fb0000" stroke="#707070" stroke-width="6">
      <path stroke="none" d="M0,14A14,14 0,1,1 28,14A14,14 0,1,1 0,14" class="lyaLamxO_13"></path>
      <path fill="none" d="M3,14A11,11 0,1,1 25,14A11,11 0,1,1 3,14" class="lyaLamxO_14"></path>
    </g>
    <g id="Ellipse_5" data-name="Ellipse 5" transform="translate(700 458)" fill="#fb0000" stroke="#707070" stroke-width="6">
      <path stroke="none" d="M0,14A14,14 0,1,1 28,14A14,14 0,1,1 0,14" class="lyaLamxO_15"></path>
      <path fill="none" d="M3,14A11,11 0,1,1 25,14A11,11 0,1,1 3,14" class="lyaLamxO_16"></path>
    </g>
    <g id="Ellipse_7" data-name="Ellipse 7" transform="translate(1156 555)" fill="#fb0000" stroke="#707070" stroke-width="6">
      <path stroke="none" d="M0,14A14,14 0,1,1 28,14A14,14 0,1,1 0,14" class="lyaLamxO_17"></path>
      <path fill="none" d="M3,14A11,11 0,1,1 25,14A11,11 0,1,1 3,14" class="lyaLamxO_18"></path>
    </g>
    <g id="Ellipse_9" data-name="Ellipse 9" transform="translate(1741 486)" fill="#fb0000" stroke="#707070" stroke-width="6">
      <path stroke="none" d="M0,14A14,14 0,1,1 28,14A14,14 0,1,1 0,14" class="lyaLamxO_19"></path>
      <path fill="none" d="M3,14A11,11 0,1,1 25,14A11,11 0,1,1 3,14" class="lyaLamxO_20"></path>
    </g>
    <path id="Line_1" data-name="Line 1" transform="translate(200.5 668.5)" fill="none" stroke="#fff" stroke-linecap="round" stroke-width="1" d="M0,0L135,115" class="lyaLamxO_21"></path>
    <path id="Line_3" data-name="Line 3" transform="translate(584.5 480.5)" fill="none" stroke="#fff" stroke-linecap="round" stroke-width="1" d="M0,89L118,0" class="lyaLamxO_22"></path>
    <path id="Line_5" data-name="Line 5" transform="translate(1046.5 493.5)" fill="none" stroke="#fff" stroke-linecap="round" stroke-width="1" d="M0,0L111,69" class="lyaLamxO_23"></path>
    <path id="Line_7" data-name="Line 7" transform="translate(1463.5 504.5)" fill="none" stroke="#fff" stroke-linecap="round" stroke-width="1" d="M0,46L278,0" class="lyaLamxO_24"></path>
    <path id="Line_2" data-name="Line 2" transform="translate(268.5 369.5)" fill="none" stroke="#fff" stroke-width="1" d="M0,357L0,0" class="lyaLamxO_25"></path>
    <path id="Line_4" data-name="Line 4" transform="translate(637.5 355.5)" fill="none" stroke="#fff" stroke-width="1" d="M0,174L0,0" class="lyaLamxO_26"></path>
    <path id="Line_6" data-name="Line 6" transform="translate(1099.5 355.5)" fill="none" stroke="#fff" stroke-width="1" d="M0,171L2,0" class="lyaLamxO_27"></path>
    <path id="Line_8" data-name="Line 8" transform="translate(1610.5 355.5)" fill="none" stroke="#fff" stroke-width="1" d="M0,171L0,0" class="lyaLamxO_28"></path>
    <text id="buy" transform="translate(156 704)" fill="#fff" font-size="30" font-family="AdobeDevanagari-Italic, Adobe Devanagari" font-style="italic"><tspan x="0" y="0">buy</tspan></text>
    <text id="buy-2" data-name="buy" transform="translate(564 623)" fill="#fff" font-size="30" font-family="AdobeDevanagari-Italic, Adobe Devanagari" font-style="italic"><tspan x="0" y="0">buy</tspan></text>
    <text id="buy-3" data-name="buy" transform="translate(1021 533)" fill="#fff" font-size="30" font-family="AdobeDevanagari-Italic, Adobe Devanagari" font-style="italic"><tspan x="0" y="0">buy</tspan></text>
    <text id="buy-4" data-name="buy" transform="translate(1423 594)" fill="#fff" font-size="30" font-family="AdobeDevanagari-Italic, Adobe Devanagari" font-style="italic"><tspan x="0" y="0">buy</tspan></text>
    <text id="sell" transform="translate(320 843)" fill="#fff" font-size="30" font-family="AdobeDevanagari-Italic, Adobe Devanagari" font-style="italic"><tspan x="0" y="0">sell</tspan></text>
    <text id="sell-2" data-name="sell" transform="translate(694 518)" fill="#fff" font-size="30" font-family="AdobeDevanagari-Italic, Adobe Devanagari" font-style="italic"><tspan x="0" y="0">sell</tspan></text>
    <text id="sell-3" data-name="sell" transform="translate(1140 619)" fill="#fff" font-size="30" font-family="AdobeDevanagari-Italic, Adobe Devanagari" font-style="italic"><tspan x="0" y="0">sell</tspan></text>
    <text id="sell-4" data-name="sell" transform="translate(1742 547)" fill="#fff" font-size="30" font-family="AdobeDevanagari-Italic, Adobe Devanagari" font-style="italic"><tspan x="0" y="0">sell</tspan></text>
    <text id="gain_-" data-name="gain -" transform="translate(245 347)" fill="#fff" font-size="30" font-family="AdobeDevanagari-Italic, Adobe Devanagari" font-style="italic"><tspan x="0" y="0">gain -</tspan></text>
    <text id="gain_" data-name="gain +" transform="translate(615 347)" fill="#fff" font-size="30" font-family="AdobeDevanagari-Italic, Adobe Devanagari" font-style="italic"><tspan x="0" y="0">gain +</tspan></text>
    <text id="gain_--2" data-name="gain -" transform="translate(1079 347)" fill="#fff" font-size="30" font-family="AdobeDevanagari-Italic, Adobe Devanagari" font-style="italic"><tspan x="0" y="0">gain -</tspan></text>
    <text id="gain_2" data-name="gain +" transform="translate(1588 347)" fill="#fff" font-size="30" font-family="AdobeDevanagari-Italic, Adobe Devanagari" font-style="italic"><tspan x="0" y="0">gain +</tspan></text>
    <path id="Path_4" data-name="Path 4" d="M24,0l8.222,10.62L48,31H0Z" transform="matrix(-1, -0.017, 0.017, -1, 292.726, 319.417)" fill="#ff3d3d" class="lyaLamxO_29"></path>
    <path id="Path_3" data-name="Path 3" d="M24,0,48,31H0Z" transform="translate(614 288)" fill="#00dcff" class="lyaLamxO_30"></path>
    <path id="Polygon_3" data-name="Polygon 3" d="M24,0,48,31H0Z" transform="matrix(-1, -0.017, 0.017, -1, 1125.726, 319.417)" fill="#ff3d3d" class="lyaLamxO_31"></path>
    <path id="Path_2" data-name="Path 2" d="M24,0,48,31H0Z" transform="translate(1586 288)" fill="#00dcff" class="lyaLamxO_32"></path>
  </g>
<style data-made-with="vivus-instant">.lyaLamxO_0{stroke-dasharray:6000 6002;stroke-dashoffset:6001;animation:lyaLamxO_draw_0 8600ms linear 0ms infinite,lyaLamxO_fade 8600ms linear 0ms infinite;}.lyaLamxO_1{stroke-dasharray:6000 6002;stroke-dashoffset:6001;animation:lyaLamxO_draw_1 8600ms linear 0ms infinite,lyaLamxO_fade 8600ms linear 0ms infinite;}.lyaLamxO_2{stroke-dasharray:2700 2702;stroke-dashoffset:2701;animation:lyaLamxO_draw_2 8600ms linear 0ms infinite,lyaLamxO_fade 8600ms linear 0ms infinite;}.lyaLamxO_3{stroke-dasharray:88 90;stroke-dashoffset:89;animation:lyaLamxO_draw_3 8600ms linear 0ms infinite,lyaLamxO_fade 8600ms linear 0ms infinite;}.lyaLamxO_4{stroke-dasharray:85 87;stroke-dashoffset:86;animation:lyaLamxO_draw_4 8600ms linear 0ms infinite,lyaLamxO_fade 8600ms linear 0ms infinite;}.lyaLamxO_5{stroke-dasharray:88 90;stroke-dashoffset:89;animation:lyaLamxO_draw_5 8600ms linear 0ms infinite,lyaLamxO_fade 8600ms linear 0ms infinite;}.lyaLamxO_6{stroke-dasharray:70 72;stroke-dashoffset:71;animation:lyaLamxO_draw_6 8600ms linear 0ms infinite,lyaLamxO_fade 8600ms linear 0ms infinite;}.lyaLamxO_7{stroke-dasharray:88 90;stroke-dashoffset:89;animation:lyaLamxO_draw_7 8600ms linear 0ms infinite,lyaLamxO_fade 8600ms linear 0ms infinite;}.lyaLamxO_8{stroke-dasharray:70 72;stroke-dashoffset:71;animation:lyaLamxO_draw_8 8600ms linear 0ms infinite,lyaLamxO_fade 8600ms linear 0ms infinite;}.lyaLamxO_9{stroke-dasharray:88 90;stroke-dashoffset:89;animation:lyaLamxO_draw_9 8600ms linear 0ms infinite,lyaLamxO_fade 8600ms linear 0ms infinite;}.lyaLamxO_10{stroke-dasharray:70 72;stroke-dashoffset:71;animation:lyaLamxO_draw_10 8600ms linear 0ms infinite,lyaLamxO_fade 8600ms linear 0ms infinite;}.lyaLamxO_11{stroke-dasharray:88 90;stroke-dashoffset:89;animation:lyaLamxO_draw_11 8600ms linear 0ms infinite,lyaLamxO_fade 8600ms linear 0ms infinite;}.lyaLamxO_12{stroke-dasharray:70 72;stroke-dashoffset:71;animation:lyaLamxO_draw_12 8600ms linear 0ms infinite,lyaLamxO_fade 8600ms linear 0ms infinite;}.lyaLamxO_13{stroke-dasharray:88 90;stroke-dashoffset:89;animation:lyaLamxO_draw_13 8600ms linear 0ms infinite,lyaLamxO_fade 8600ms linear 0ms infinite;}.lyaLamxO_14{stroke-dasharray:70 72;stroke-dashoffset:71;animation:lyaLamxO_draw_14 8600ms linear 0ms infinite,lyaLamxO_fade 8600ms linear 0ms infinite;}.lyaLamxO_15{stroke-dasharray:88 90;stroke-dashoffset:89;animation:lyaLamxO_draw_15 8600ms linear 0ms infinite,lyaLamxO_fade 8600ms linear 0ms infinite;}.lyaLamxO_16{stroke-dasharray:70 72;stroke-dashoffset:71;animation:lyaLamxO_draw_16 8600ms linear 0ms infinite,lyaLamxO_fade 8600ms linear 0ms infinite;}.lyaLamxO_17{stroke-dasharray:88 90;stroke-dashoffset:89;animation:lyaLamxO_draw_17 8600ms linear 0ms infinite,lyaLamxO_fade 8600ms linear 0ms infinite;}.lyaLamxO_18{stroke-dasharray:70 72;stroke-dashoffset:71;animation:lyaLamxO_draw_18 8600ms linear 0ms infinite,lyaLamxO_fade 8600ms linear 0ms infinite;}.lyaLamxO_19{stroke-dasharray:88 90;stroke-dashoffset:89;animation:lyaLamxO_draw_19 8600ms linear 0ms infinite,lyaLamxO_fade 8600ms linear 0ms infinite;}.lyaLamxO_20{stroke-dasharray:70 72;stroke-dashoffset:71;animation:lyaLamxO_draw_20 8600ms linear 0ms infinite,lyaLamxO_fade 8600ms linear 0ms infinite;}.lyaLamxO_21{stroke-dasharray:178 180;stroke-dashoffset:179;animation:lyaLamxO_draw_21 8600ms linear 0ms infinite,lyaLamxO_fade 8600ms linear 0ms infinite;}.lyaLamxO_22{stroke-dasharray:148 150;stroke-dashoffset:149;animation:lyaLamxO_draw_22 8600ms linear 0ms infinite,lyaLamxO_fade 8600ms linear 0ms infinite;}.lyaLamxO_23{stroke-dasharray:131 133;stroke-dashoffset:132;animation:lyaLamxO_draw_23 8600ms linear 0ms infinite,lyaLamxO_fade 8600ms linear 0ms infinite;}.lyaLamxO_24{stroke-dasharray:282 284;stroke-dashoffset:283;animation:lyaLamxO_draw_24 8600ms linear 0ms infinite,lyaLamxO_fade 8600ms linear 0ms infinite;}.lyaLamxO_25{stroke-dasharray:357 359;stroke-dashoffset:358;animation:lyaLamxO_draw_25 8600ms linear 0ms infinite,lyaLamxO_fade 8600ms linear 0ms infinite;}.lyaLamxO_26{stroke-dasharray:174 176;stroke-dashoffset:175;animation:lyaLamxO_draw_26 8600ms linear 0ms infinite,lyaLamxO_fade 8600ms linear 0ms infinite;}.lyaLamxO_27{stroke-dasharray:172 174;stroke-dashoffset:173;animation:lyaLamxO_draw_27 8600ms linear 0ms infinite,lyaLamxO_fade 8600ms linear 0ms infinite;}.lyaLamxO_28{stroke-dasharray:171 173;stroke-dashoffset:172;animation:lyaLamxO_draw_28 8600ms linear 0ms infinite,lyaLamxO_fade 8600ms linear 0ms infinite;}.lyaLamxO_29{stroke-dasharray:127 129;stroke-dashoffset:128;animation:lyaLamxO_draw_29 8600ms linear 0ms infinite,lyaLamxO_fade 8600ms linear 0ms infinite;}.lyaLamxO_30{stroke-dasharray:127 129;stroke-dashoffset:128;animation:lyaLamxO_draw_30 8600ms linear 0ms infinite,lyaLamxO_fade 8600ms linear 0ms infinite;}.lyaLamxO_31{stroke-dasharray:127 129;stroke-dashoffset:128;animation:lyaLamxO_draw_31 8600ms linear 0ms infinite,lyaLamxO_fade 8600ms linear 0ms infinite;}.lyaLamxO_32{stroke-dasharray:127 129;stroke-dashoffset:128;animation:lyaLamxO_draw_32 8600ms linear 0ms infinite,lyaLamxO_fade 8600ms linear 0ms infinite;}@keyframes lyaLamxO_draw{100%{stroke-dashoffset:0;}}@keyframes lyaLamxO_fade{0%{stroke-opacity:1;}95.34883720930233%{stroke-opacity:1;}100%{stroke-opacity:0;}}@keyframes lyaLamxO_draw_0{9.30232558139535%{stroke-dashoffset: 6001}43.410852713178286%{ stroke-dashoffset: 0;}100%{ stroke-dashoffset: 0;}}@keyframes lyaLamxO_draw_1{9.835271317829458%{stroke-dashoffset: 6001}43.9437984496124%{ stroke-dashoffset: 0;}100%{ stroke-dashoffset: 0;}}@keyframes lyaLamxO_draw_2{10.368217054263566%{stroke-dashoffset: 2701}44.47674418604651%{ stroke-dashoffset: 0;}100%{ stroke-dashoffset: 0;}}@keyframes lyaLamxO_draw_3{10.901162790697674%{stroke-dashoffset: 89}45.00968992248062%{ stroke-dashoffset: 0;}100%{ stroke-dashoffset: 0;}}@keyframes lyaLamxO_draw_4{11.434108527131784%{stroke-dashoffset: 86}45.542635658914726%{ stroke-dashoffset: 0;}100%{ stroke-dashoffset: 0;}}@keyframes lyaLamxO_draw_5{11.967054263565892%{stroke-dashoffset: 89}46.075581395348834%{ stroke-dashoffset: 0;}100%{ stroke-dashoffset: 0;}}@keyframes lyaLamxO_draw_6{12.5%{stroke-dashoffset: 71}46.60852713178294%{ stroke-dashoffset: 0;}100%{ stroke-dashoffset: 0;}}@keyframes lyaLamxO_draw_7{13.03294573643411%{stroke-dashoffset: 89}47.14147286821706%{ stroke-dashoffset: 0;}100%{ stroke-dashoffset: 0;}}@keyframes lyaLamxO_draw_8{13.56589147286822%{stroke-dashoffset: 71}47.674418604651166%{ stroke-dashoffset: 0;}100%{ stroke-dashoffset: 0;}}@keyframes lyaLamxO_draw_9{14.098837209302326%{stroke-dashoffset: 89}48.20736434108527%{ stroke-dashoffset: 0;}100%{ stroke-dashoffset: 0;}}@keyframes lyaLamxO_draw_10{14.631782945736434%{stroke-dashoffset: 71}48.740310077519375%{ stroke-dashoffset: 0;}100%{ stroke-dashoffset: 0;}}@keyframes lyaLamxO_draw_11{15.164728682170544%{stroke-dashoffset: 89}49.27325581395349%{ stroke-dashoffset: 0;}100%{ stroke-dashoffset: 0;}}@keyframes lyaLamxO_draw_12{15.69767441860465%{stroke-dashoffset: 71}49.80620155038759%{ stroke-dashoffset: 0;}100%{ stroke-dashoffset: 0;}}@keyframes lyaLamxO_draw_13{16.23062015503876%{stroke-dashoffset: 89}50.33914728682169%{ stroke-dashoffset: 0;}100%{ stroke-dashoffset: 0;}}@keyframes lyaLamxO_draw_14{16.76356589147287%{stroke-dashoffset: 71}50.872093023255815%{ stroke-dashoffset: 0;}100%{ stroke-dashoffset: 0;}}@keyframes lyaLamxO_draw_15{17.296511627906977%{stroke-dashoffset: 89}51.405038759689916%{ stroke-dashoffset: 0;}100%{ stroke-dashoffset: 0;}}@keyframes lyaLamxO_draw_16{17.829457364341085%{stroke-dashoffset: 71}51.937984496124024%{ stroke-dashoffset: 0;}100%{ stroke-dashoffset: 0;}}@keyframes lyaLamxO_draw_17{18.362403100775197%{stroke-dashoffset: 89}52.470930232558146%{ stroke-dashoffset: 0;}100%{ stroke-dashoffset: 0;}}@keyframes lyaLamxO_draw_18{18.8953488372093%{stroke-dashoffset: 71}53.00387596899224%{ stroke-dashoffset: 0;}100%{ stroke-dashoffset: 0;}}@keyframes lyaLamxO_draw_19{19.428294573643413%{stroke-dashoffset: 89}53.53682170542635%{ stroke-dashoffset: 0;}100%{ stroke-dashoffset: 0;}}@keyframes lyaLamxO_draw_20{19.96124031007752%{stroke-dashoffset: 71}54.06976744186046%{ stroke-dashoffset: 0;}100%{ stroke-dashoffset: 0;}}@keyframes lyaLamxO_draw_21{20.49418604651163%{stroke-dashoffset: 179}54.60271317829457%{ stroke-dashoffset: 0;}100%{ stroke-dashoffset: 0;}}@keyframes lyaLamxO_draw_22{21.027131782945737%{stroke-dashoffset: 149}55.13565891472868%{ stroke-dashoffset: 0;}100%{ stroke-dashoffset: 0;}}@keyframes lyaLamxO_draw_23{21.560077519379846%{stroke-dashoffset: 132}55.66860465116279%{ stroke-dashoffset: 0;}100%{ stroke-dashoffset: 0;}}@keyframes lyaLamxO_draw_24{22.093023255813954%{stroke-dashoffset: 283}56.201550387596896%{ stroke-dashoffset: 0;}100%{ stroke-dashoffset: 0;}}@keyframes lyaLamxO_draw_25{22.625968992248062%{stroke-dashoffset: 358}56.734496124031%{ stroke-dashoffset: 0;}100%{ stroke-dashoffset: 0;}}@keyframes lyaLamxO_draw_26{23.15891472868217%{stroke-dashoffset: 175}57.26744186046512%{ stroke-dashoffset: 0;}100%{ stroke-dashoffset: 0;}}@keyframes lyaLamxO_draw_27{23.691860465116278%{stroke-dashoffset: 173}57.80038759689921%{ stroke-dashoffset: 0;}100%{ stroke-dashoffset: 0;}}@keyframes lyaLamxO_draw_28{24.22480620155039%{stroke-dashoffset: 172}58.33333333333333%{ stroke-dashoffset: 0;}100%{ stroke-dashoffset: 0;}}@keyframes lyaLamxO_draw_29{24.757751937984498%{stroke-dashoffset: 128}58.866279069767444%{ stroke-dashoffset: 0;}100%{ stroke-dashoffset: 0;}}@keyframes lyaLamxO_draw_30{25.290697674418606%{stroke-dashoffset: 128}59.399224806201545%{ stroke-dashoffset: 0;}100%{ stroke-dashoffset: 0;}}@keyframes lyaLamxO_draw_31{25.823643410852714%{stroke-dashoffset: 128}59.93217054263565%{ stroke-dashoffset: 0;}100%{ stroke-dashoffset: 0;}}@keyframes lyaLamxO_draw_32{26.356589147286826%{stroke-dashoffset: 128}60.46511627906976%{ stroke-dashoffset: 0;}100%{ stroke-dashoffset: 0;}}</style></svg>
